<?xml version="1.0" encoding="UTF-8" standalone="no"?><svg xmlns="http://www.w3.org/2000/svg" xmlns:xlink="http://www.w3.org/1999/xlink" fill="#d9d9d9" height="300" preserveAspectRatio="xMidYMid meet" version="1" viewBox="0.0 0.0 300.0 300.0" width="300" zoomAndPan="magnify"><g id="change1_1"><path d="M201.389,119.444h-8.61V79.028c0-14.474-11.776-26.25-26.25-26.25h-33.057c-14.474,0-26.25,11.776-26.25,26.25v40.416 h-8.611c-9.205,0-16.667,7.462-16.667,16.667v81.111c0,9.205,7.462,16.667,16.667,16.667h102.778 c9.205,0,16.667-7.462,16.667-16.667v-81.111C218.055,126.906,210.593,119.444,201.389,119.444z M120.555,79.028 c0-7.122,5.794-12.917,12.917-12.917h33.057c7.122,0,12.917,5.794,12.917,12.917v39.305h-58.89V79.028z M158.722,205.66 c0.161,1.079-0.675,2.049-1.765,2.049h-13.913c-1.091,0-1.926-0.97-1.765-2.049l3.159-21.149 c-3.599-2.207-5.818-6.443-4.938-11.147c0.794-4.244,4.286-7.709,8.536-8.466c6.772-1.205,12.66,3.97,12.66,10.519 c0,3.86-2.065,7.214-5.131,9.094L158.722,205.66z" fill="inherit"/><path d="M150,0C67.29,0,0,67.29,0,150s67.29,150,150,150s150-67.29,150-150S232.71,0,150,0z M150,286.667 c-75.358,0-136.667-61.309-136.667-136.667S74.642,13.333,150,13.333S286.667,74.642,286.667,150S225.358,286.667,150,286.667z" fill="inherit"/></g></svg>